<svg xmlns="http://www.w3.org/2000/svg" viewBox="0 0 985 254"><path d="M116.1 75.63a29.54 29.54 0 0 1 0-28.06l-70.8 131.1a29.5 29.5 0 1 1 51.91 28.06l45-83.3z" fill="#4cccf4"/><path d="M310.35 75.62a29.5 29.5 0 1 1-51.91-28.06l-45 83.23 25.87 47.36a29.52 29.52 0 0 1 .2 28.58l70.85-131.1z" fill="#ffb1cc"/><path d="M187.62 178.68l25.86-47.9L168 47.56a29.54 29.54 0 0 1 0 28.06l-25.83 47.8 45.23 82.78a29.49 29.49 0 0 1 .18-27.53z" fill="#e1e600"/><path d="M168 75.62a29.51 29.51 0 0 1-51.94 0l26.12 47.8L168 75.63z" fill="#43b800"/><path d="M213.48 130.8l-25.86 47.9a29.5 29.5 0 0 1 51.71-.52z" fill="#e1a000"/><circle cx="71.3" cy="192.62" r="29.5" fill="#4088cd"/><circle cx="142.06" cy="61.62" r="29.5" fill="#009148"/><circle cx="213.62" cy="192.62" r="29.5" fill="#ff7500"/><circle cx="284.38" cy="61.62" r="29.5" fill="#9757ab"/><path d="M333.5 112.6a6.83 6.83 0 0 1 6.8-6.9h1.5c3.3 0 5.2 1.7 7.1 4l38.8 50.2v-47.7a6.7 6.7 0 0 1 13.4 0v65.2a6.62 6.62 0 0 1-6.5 6.8h-.7c-3.2 0-5.2-1.7-7.1-4.1l-39.9-51.7v49.2a6.7 6.7 0 1 1-13.4 0v-65zm83.1 64.3V113a6.79 6.79 0 0 1 6.6-6.9h45.3a6.1 6.1 0 1 1 0 12.2h-38.4v20.2h33.4a6.1 6.1 0 1 1 0 12.2h-33.4v20.8H469a6.1 6.1 0 1 1 0 12.2h-45.7a6.79 6.79 0 0 1-6.9-6.6c.2 0 .2-.1.2-.2zm67.3-62a7.64 7.64 0 0 1-.6-2.7 6.9 6.9 0 0 1 7-6.7 7.08 7.08 0 0 1 6.8 5L515 164l17.5-53.1c1.1-3.2 3.4-5.4 6.9-5.4h1a7.15 7.15 0 0 1 6.9 5.4l17.5 53.1 17.8-53.4a7 7 0 0 1 6.7-4.9 6.68 6.68 0 0 1 6.8 6.5 8.87 8.87 0 0 1-.7 2.8l-23 64.3c-1.2 3.4-3.8 5.7-7.1 5.7H564c-3.3 0-5.8-2.1-7-5.7l-17.3-50.7-17.3 50.7c-1.2 3.6-3.8 5.7-7.1 5.7H514c-3.3 0-5.8-2.1-7.1-5.7zm122.2-1.9a6.72 6.72 0 0 1 6.7-6.8h45.4a6.2 6.2 0 0 1 0 12.4h-38.5v21.2h33.5a6.2 6.2 0 0 1 0 12.4h-33.5v25.4a6.8 6.8 0 0 1-13.6 0zm56.1 61.9l28.8-64.3a8.78 8.78 0 0 1 8.2-5.6h.7c3.9 0 6.5 2.1 8.1 5.6l28.8 64.3a6 6 0 0 1 .8 2.9 6.3 6.3 0 0 1-6.2 6.5h-.2c-3.2 0-5.4-1.9-6.7-4.8l-6.3-14.5h-37.7l-6.5 15a6.59 6.59 0 0 1-6.3 4.3 6.19 6.19 0 0 1-6.3-6.2v-.1a5.16 5.16 0 0 1 .8-3.1zM713 153l-13.6-31.4-13.7 31.4zm34.9-40.3a6.89 6.89 0 0 1 6.8-6.9h1.5c3.3 0 5.2 1.7 7.1 4l38.8 50.2v-47.7a6.71 6.71 0 0 1 13.4 0v65.2a6.62 6.62 0 0 1-6.5 6.8h-.8c-3.2 0-5.2-1.7-7.1-4.1l-39.9-51.7v49.2a6.71 6.71 0 0 1-13.4 0zm79.7 32.5v-.2c0-21.7 16.6-40.1 40-40.1 11.6 0 19.4 2.8 26.5 7.9a7.11 7.11 0 0 1 2.8 5.5 6.81 6.81 0 0 1-6.8 6.8 7.28 7.28 0 0 1-4.2-1.6 29.34 29.34 0 0 0-18.9-6.1c-14.3 0-25.2 12.5-25.2 27.4v.2c0 16 10.5 27.7 26.4 27.7a31.77 31.77 0 0 0 18.8-5.9v-14.5h-15.3a6 6 0 0 1-6.1-5.9 6.1 6.1 0 0 1 6.1-6h21.6a6.81 6.81 0 0 1 6.9 6.7V168a9.31 9.31 0 0 1-4.8 8.6 49.51 49.51 0 0 1-27.6 8.4c-24.3.1-40.2-17.2-40.2-39.8z" fill="#111"/></svg>